<mxfile host="app.diagrams.net" modified="2022-03-30T01:43:33.846Z" agent="5.0 (X11; Linux x86_64) AppleWebKit/537.36 (KHTML, like Gecko) Chrome/99.0.4844.82 Safari/537.36" etag="stNPOrKa72nJPWzqVZRn" version="17.2.5" type="github">
  <diagram id="ZG08SC_tRfGBTQICPXSU" name="Page-1">
    <mxGraphModel dx="675" dy="387" grid="1" gridSize="10" guides="1" tooltips="1" connect="1" arrows="1" fold="1" page="1" pageScale="1" pageWidth="850" pageHeight="1100" math="0" shadow="0">
      <root>
        <mxCell id="0" />
        <mxCell id="1" parent="0" />
        <mxCell id="DrGUlCJ42qu_IlYluvyH-18" style="edgeStyle=orthogonalEdgeStyle;rounded=0;orthogonalLoop=1;jettySize=auto;html=1;entryX=0.5;entryY=0;entryDx=0;entryDy=0;" edge="1" parent="1" source="DrGUlCJ42qu_IlYluvyH-16">
          <mxGeometry relative="1" as="geometry">
            <mxPoint x="150" y="160" as="targetPoint" />
          </mxGeometry>
        </mxCell>
        <mxCell id="DrGUlCJ42qu_IlYluvyH-16" value="Start&lt;br&gt;&lt;br&gt;&lt;font color=&quot;#ffb759&quot;&gt;isError = false&lt;br&gt;hasOperator = false&lt;br&gt;hasSpace = false&lt;br&gt;hasResult = false&lt;/font&gt;" style="rounded=1;whiteSpace=wrap;html=1;" vertex="1" parent="1">
          <mxGeometry x="80" y="40" width="140" height="90" as="geometry" />
        </mxCell>
        <mxCell id="DrGUlCJ42qu_IlYluvyH-20" style="edgeStyle=orthogonalEdgeStyle;rounded=0;orthogonalLoop=1;jettySize=auto;html=1;" edge="1" parent="1" target="DrGUlCJ42qu_IlYluvyH-19">
          <mxGeometry relative="1" as="geometry">
            <mxPoint x="485.16" y="250" as="sourcePoint" />
          </mxGeometry>
        </mxCell>
        <mxCell id="DrGUlCJ42qu_IlYluvyH-28" style="edgeStyle=orthogonalEdgeStyle;rounded=0;orthogonalLoop=1;jettySize=auto;html=1;entryX=0.5;entryY=0;entryDx=0;entryDy=0;fontColor=#FF3333;" edge="1" parent="1" source="DrGUlCJ42qu_IlYluvyH-19" target="DrGUlCJ42qu_IlYluvyH-26">
          <mxGeometry relative="1" as="geometry" />
        </mxCell>
        <mxCell id="DrGUlCJ42qu_IlYluvyH-19" value="&lt;font&gt;&lt;font color=&quot;#ffb759&quot;&gt;hasOperator = true&lt;/font&gt;&lt;br&gt;&lt;br&gt;&lt;font color=&quot;#ff3333&quot;&gt;leftOperand&lt;/font&gt;&lt;/font&gt; = &lt;font color=&quot;#67ab9f&quot;&gt;input_angka_pertama&lt;/font&gt;&lt;br&gt;&lt;font color=&quot;#ff3333&quot;&gt;operationSign&lt;/font&gt; = &lt;font color=&quot;#67ab9f&quot;&gt;operator&lt;/font&gt;" style="rounded=0;whiteSpace=wrap;html=1;" vertex="1" parent="1">
          <mxGeometry x="380" y="290" width="210.31" height="60" as="geometry" />
        </mxCell>
        <mxCell id="DrGUlCJ42qu_IlYluvyH-21" value="&lt;font color=&quot;#67ab9f&quot;&gt;Input_angka_pertama&lt;br&gt;operator&lt;br&gt;&lt;/font&gt;" style="shape=parallelogram;perimeter=parallelogramPerimeter;whiteSpace=wrap;html=1;fixedSize=1;" vertex="1" parent="1">
          <mxGeometry x="403.91" y="190" width="160" height="60" as="geometry" />
        </mxCell>
        <mxCell id="DrGUlCJ42qu_IlYluvyH-30" value="" style="edgeStyle=orthogonalEdgeStyle;rounded=0;orthogonalLoop=1;jettySize=auto;html=1;fontColor=#FF3333;" edge="1" parent="1" source="DrGUlCJ42qu_IlYluvyH-26" target="DrGUlCJ42qu_IlYluvyH-29">
          <mxGeometry relative="1" as="geometry" />
        </mxCell>
        <mxCell id="DrGUlCJ42qu_IlYluvyH-26" value="&lt;font color=&quot;#67ab9f&quot;&gt;Input_angka_kedua&lt;br&gt;&lt;/font&gt;" style="shape=parallelogram;perimeter=parallelogramPerimeter;whiteSpace=wrap;html=1;fixedSize=1;" vertex="1" parent="1">
          <mxGeometry x="405.16" y="390" width="160" height="60" as="geometry" />
        </mxCell>
        <mxCell id="DrGUlCJ42qu_IlYluvyH-29" value="&lt;font&gt;&lt;font color=&quot;#ffb759&quot;&gt;hasSpace = true&lt;/font&gt;&lt;br&gt;&lt;br&gt;&lt;font color=&quot;#ff3333&quot;&gt;rightOperand &lt;/font&gt;&lt;/font&gt;&lt;font&gt;= &lt;font color=&quot;#67ab9f&quot;&gt;input_angka_kedua&lt;/font&gt;&lt;/font&gt;" style="rounded=0;whiteSpace=wrap;html=1;" vertex="1" parent="1">
          <mxGeometry x="380" y="490" width="210.31" height="60" as="geometry" />
        </mxCell>
        <mxCell id="DrGUlCJ42qu_IlYluvyH-34" value="" style="edgeStyle=orthogonalEdgeStyle;rounded=0;orthogonalLoop=1;jettySize=auto;html=1;fontColor=#000000;" edge="1" parent="1" source="DrGUlCJ42qu_IlYluvyH-31" target="DrGUlCJ42qu_IlYluvyH-32">
          <mxGeometry relative="1" as="geometry" />
        </mxCell>
        <mxCell id="DrGUlCJ42qu_IlYluvyH-35" value="" style="edgeStyle=orthogonalEdgeStyle;rounded=0;orthogonalLoop=1;jettySize=auto;html=1;fontColor=#000000;" edge="1" parent="1" source="DrGUlCJ42qu_IlYluvyH-31" target="DrGUlCJ42qu_IlYluvyH-33">
          <mxGeometry relative="1" as="geometry" />
        </mxCell>
        <mxCell id="DrGUlCJ42qu_IlYluvyH-31" value="&lt;font color=&quot;#000000&quot;&gt;sudah ada input&lt;br&gt;sebelumnya?&lt;/font&gt;" style="rhombus;whiteSpace=wrap;html=1;fontColor=#FFB759;" vertex="1" parent="1">
          <mxGeometry x="77.5" y="160" width="145" height="70" as="geometry" />
        </mxCell>
        <mxCell id="DrGUlCJ42qu_IlYluvyH-32" value="Buat input baru" style="rounded=0;whiteSpace=wrap;html=1;fontColor=#000000;" vertex="1" parent="1">
          <mxGeometry x="90" y="260" width="120" height="60" as="geometry" />
        </mxCell>
        <mxCell id="DrGUlCJ42qu_IlYluvyH-33" value="Tambahkan input di belakang" style="rounded=0;whiteSpace=wrap;html=1;fontColor=#000000;" vertex="1" parent="1">
          <mxGeometry x="260" y="165" width="120" height="60" as="geometry" />
        </mxCell>
        <mxCell id="DrGUlCJ42qu_IlYluvyH-36" value="Tidak" style="text;html=1;strokeColor=none;fillColor=none;align=center;verticalAlign=middle;whiteSpace=wrap;rounded=0;fontColor=#000000;" vertex="1" parent="1">
          <mxGeometry x="100" y="225" width="60" height="30" as="geometry" />
        </mxCell>
        <mxCell id="DrGUlCJ42qu_IlYluvyH-37" value="Ya" style="text;html=1;strokeColor=none;fillColor=none;align=center;verticalAlign=middle;whiteSpace=wrap;rounded=0;fontColor=#000000;" vertex="1" parent="1">
          <mxGeometry x="210" y="170" width="60" height="30" as="geometry" />
        </mxCell>
      </root>
    </mxGraphModel>
  </diagram>
</mxfile>
